<?xml version="1.0" standalone="no"?>
<!DOCTYPE svg PUBLIC "-//W3C//DTD SVG 20010904//EN"
 "http://www.w3.org/TR/2001/REC-SVG-20010904/DTD/svg10.dtd">
<svg version="1.0" xmlns="http://www.w3.org/2000/svg"
 width="512.000000pt" height="512.000000pt" viewBox="0 0 512.000000 512.000000"
 preserveAspectRatio="xMidYMid meet">
<metadata>
Created by potrace 1.11, written by Peter Selinger 2001-2013
</metadata>
<g transform="translate(0.000000,512.000000) scale(0.100000,-0.100000)"
fill="#000000" stroke="none">
<path d="M1027 5104 c-121 -29 -235 -100 -352 -218 -175 -178 -323 -439 -438
-776 -64 -186 -135 -467 -161 -640 -25 -156 -36 -233 -41 -285 -3 -33 -8 -73
-10 -90 -13 -97 -20 -286 -19 -545 0 -264 3 -357 19 -510 2 -25 7 -70 10 -100
9 -85 16 -138 31 -230 28 -164 34 -196 54 -285 11 -49 23 -100 25 -112 12 -54
77 -267 109 -353 180 -499 437 -827 728 -932 l63 -23 1495 -2 c1338 -3 1501
-1 1555 13 229 61 445 269 618 594 123 231 244 586 303 885 2 11 8 43 14 70 5
28 12 66 15 85 3 19 7 46 10 60 2 14 7 45 10 70 4 25 8 56 10 70 2 14 6 52 10
85 3 33 8 74 10 90 27 220 27 819 0 1065 -3 25 -7 68 -10 96 -2 27 -6 61 -9
75 -3 13 -8 47 -11 74 -3 28 -9 75 -15 105 -5 30 -12 69 -15 85 -2 17 -7 39
-9 50 -3 11 -12 54 -21 95 -43 204 -119 452 -191 628 -172 415 -414 699 -676
794 l-63 23 -1495 2 c-1256 1 -1504 -1 -1553 -13z"/>
</g>
</svg>
